<svg xmlns="http://www.w3.org/2000/svg" width="44" height="82" fill="none" viewBox="0 0 44 82">
    <path fill="url(#paint0_linear)" d="M2 2H42V80H2z"/>
    <path fill="#fff" fill-rule="evenodd" d="M22 29c2.142 0 3.891 1.684 3.995 3.8L26 33v2h1.718c.557 0 .892.065 1.242.252.337.18.608.45.788.788.164.306.234.6.249 1.043l.003.199v7.436c0 .557-.065.892-.252 1.242-.18.337-.45.608-.788.788-.306.164-.6.234-1.043.249l-.199.003H16.282c-.557 0-.892-.065-1.242-.252-.337-.18-.608-.45-.788-.788-.164-.306-.234-.6-.249-1.043L14 44.718v-7.436c0-.557.065-.892.252-1.242.18-.337.45-.608.788-.788.306-.164.6-.234 1.043-.249l.199-.003H18v-2c0-2.21 1.79-4 4-4zm5.87 8l-11.79.002-.073.005-.005.074v7.838l.005.073.074.006h11.838l.073-.006.006-.073v-7.838l-.006-.074-.122-.006zm-4.583 2.47l.126.118.118.127c.625.741.625 1.83 0 2.574l-.117.127c-.78.78-2.047.78-2.829 0-.78-.78-.78-2.047 0-2.829.74-.74 1.916-.779 2.702-.116zM22 31c-1.054 0-1.918.816-1.994 1.85L20 33v2h4v-2c0-1.105-.895-2-2-2z" clip-rule="evenodd"/>
    <path fill="#454F66" fill-rule="evenodd" d="M0 6c0-3.314 2.686-6 6-6h32c3.314 0 6 2.686 6 6v70c0 3.314-2.686 6-6 6H6c-3.314 0-6-2.686-6-6V6zm12.833-3c.46 0 .834.373.834.833V4.5c0 .466 0 .699.076.883.101.245.296.44.541.54.184.077.417.077.883.077h13.666c.466 0 .7 0 .883-.076.245-.102.44-.296.541-.541.076-.184.076-.417.076-.883v-.667c0-.46.373-.833.834-.833H37c2.21 0 4 1.79 4 4v68c0 2.21-1.79 4-4 4H7c-2.21 0-4-1.79-4-4V7c0-2.21 1.79-4 4-4h5.833z" clip-rule="evenodd"/>
    <defs>
        <linearGradient id="paint0_linear" x1="22" x2="22" y1="80" y2="2" gradientUnits="userSpaceOnUse">
            <stop stop-color="#0073B9"/>
            <stop offset="1" stop-color="#01A0D2"/>
        </linearGradient>
    </defs>
</svg>
