<svg xmlns="http://www.w3.org/2000/svg" width="100" height="82" fill="none" viewBox="0 0 100 82">
    <path fill="#CBCDD3" d="M0 30.96c0-.705.37-1.358.975-1.718l48-28.63c.632-.377 1.418-.377 2.05 0l48 28.63c.604.36.975 1.013.975 1.717V34c0 1.105-.895 2-2 2H2c-1.105 0-2-.895-2-2v-3.04z"/>
    <rect width="80" height="67" x="10" y="8" fill="url(#paint0_linear)" rx="4"/>
    <path fill="#fff" fill-rule="evenodd" d="M57.293 22.293l1.414 1.414L48 34.414l-6.707-6.707 1.414-1.414L48 31.585l9.293-9.292z" clip-rule="evenodd"/>
    <path fill="#E0E4EB" d="M0 32c0-1.105.895-2 2-2h5.431c.372 0 .737.104 1.053.3l77.538 48c1.712 1.06.961 3.7-1.053 3.7H2c-1.105 0-2-.895-2-2V32z"/>
    <path fill="#E0E4EB" d="M100 32c0-1.105-.895-2-2-2h-5.431c-.372 0-.737.104-1.053.3l-77.538 48c-1.713 1.06-.961 3.7 1.053 3.7H98c1.105 0 2-.895 2-2V32z"/>
    <path fill="#EFF2F8" d="M0 77.335c0-.722.39-1.388 1.018-1.742l48-27.04c.61-.343 1.354-.343 1.964 0l48 27.04c.629.354 1.018 1.02 1.018 1.742V80c0 1.105-.895 2-2 2H2c-1.105 0-2-.895-2-2v-2.665z"/>
    <defs>
        <linearGradient id="paint0_linear" x1="50" x2="50" y1="75" y2="8" gradientUnits="userSpaceOnUse">
            <stop stop-color="#3E9076"/>
            <stop offset="1" stop-color="#19BC9B"/>
        </linearGradient>
    </defs>
</svg>
