<svg xmlns="http://www.w3.org/2000/svg" width="100" height="82" fill="none" viewBox="0 0 100 82">
    <path fill="#CBCDD3" d="M0 30.96c0-.705.37-1.358.975-1.718l48-28.63c.632-.377 1.418-.377 2.05 0l48 28.63c.604.36.975 1.013.975 1.717V34c0 1.105-.895 2-2 2H2c-1.105 0-2-.895-2-2v-3.04z"/>
    <rect width="80" height="67" x="10" y="8" fill="url(#paint0_linear)" rx="4"/>
    <path fill="#fff" fill-rule="evenodd" d="M50 19c2.142 0 3.891 1.684 3.995 3.8L54 23v2h1.718c.557 0 .892.065 1.242.252.337.18.608.45.788.788.164.306.234.6.249 1.043l.003.199v7.436c0 .557-.065.892-.252 1.242-.18.337-.45.608-.788.788-.306.164-.6.234-1.043.249l-.199.003H44.282c-.557 0-.892-.065-1.242-.252-.337-.18-.608-.45-.788-.788-.164-.306-.234-.6-.249-1.043L42 34.718v-7.436c0-.557.065-.892.252-1.242.18-.337.45-.608.788-.788.306-.164.6-.234 1.043-.249l.199-.003H46v-2c0-2.21 1.79-4 4-4zm5.87 8l-11.79.002-.073.005-.005.074v7.838l.005.073.074.006h11.838l.073-.006.006-.073v-7.838l-.006-.074-.122-.006zm-4.583 2.47l.126.118.118.127c.625.741.625 1.83 0 2.574l-.117.127c-.78.78-2.047.78-2.829 0-.78-.78-.78-2.047 0-2.829.74-.74 1.916-.779 2.702-.116zM50 21c-1.054 0-1.918.816-1.995 1.85L48 23v2h4v-2c0-1.105-.895-2-2-2z" clip-rule="evenodd"/>
    <path fill="#E0E4EB" d="M0 32c0-1.105.895-2 2-2h5.431c.372 0 .737.104 1.053.3l77.538 48c1.712 1.06.961 3.7-1.053 3.7H2c-1.105 0-2-.895-2-2V32z"/>
    <path fill="#E0E4EB" d="M100 32c0-1.105-.895-2-2-2h-5.431c-.372 0-.737.104-1.053.3l-77.538 48c-1.713 1.06-.961 3.7 1.053 3.7H98c1.105 0 2-.895 2-2V32z"/>
    <path fill="#EFF2F8" d="M0 77.335c0-.722.39-1.388 1.018-1.742l48-27.04c.61-.343 1.354-.343 1.964 0l48 27.04c.629.354 1.018 1.02 1.018 1.742V80c0 1.105-.895 2-2 2H2c-1.105 0-2-.895-2-2v-2.665z"/>
    <defs>
        <linearGradient id="paint0_linear" x1="50" x2="50" y1="75" y2="8" gradientUnits="userSpaceOnUse">
            <stop stop-color="#0073B9"/>
            <stop offset="1" stop-color="#01A0D2"/>
        </linearGradient>
    </defs>
</svg>
